<svg id="flat" height="512" viewBox="0 0 512 512" width="512" xmlns="http://www.w3.org/2000/svg"><path d="m319.946 320h64v72h-64z" fill="#cad8ed"/><path d="m407.946 320v96h-136v-24h112v-72z" fill="#e4e9f2"/><path d="m351.94586 352a8.00008 8.00008 0 0 1 -8-8v-24a8 8 0 0 1 16 0v24a8.00008 8.00008 0 0 1 -8 8z" fill="#a6bce3"/><rect fill="#5771e5" height="224" rx="16" width="296" x="191.946" y="96"/><path d="m23.94586 384h224a0 0 0 0 1 0 0v32a0 0 0 0 1 0 0h-208a16 16 0 0 1 -16-16v-16a0 0 0 0 1 0 0z" fill="#cad8ed"/><path d="m95.94586 384 43.844-110.30271a16 16 0 0 1 14.70634-9.69729h123.2512a12 12 0 0 1 11.02974 16.727l-40.83128 103.273z" fill="#5771e5"/><path d="m175.94586 416a16 16 0 0 1 -16-16v-16h88v32z" fill="#e4e9f2"/><circle cx="215.946" cy="120" fill="#ed6445" r="8"/><circle cx="239.946" cy="120" fill="#f7c04a" r="8"/><circle cx="263.946" cy="120" fill="#90d4b1" r="8"/><path d="m346.28864 269.65674-24-24a8 8 0 0 1 0-11.31348l24-24 11.31445 11.31348-18.34375 18.34326 18.34375 18.34326z" fill="#89a8f5"/><path d="m437.60309 269.65674-11.31445-11.31348 18.34375-18.34326-18.34375-18.34326 11.31445-11.31348 24 24a8 8 0 0 1 0 11.31348z" fill="#89a8f5"/><path d="m331.02 232h121.852v16.001h-121.852z" fill="#89a8f5" transform="matrix(.394 -.919 .919 .394 16.96 505.72)"/><g fill="#3d44d1"><path d="m215.946 152h16v16h-16z"/><path d="m247.946 152h56v16h-56z"/><path d="m215.946 184h16v16h-16z"/><path d="m247.946 184h32v16h-32z"/><path d="m215.946 216h16v16h-16z"/><path d="m247.946 216h48v16h-48z"/><path d="m319.946 152h32v16h-32z"/></g><path d="m273.24957 320a7.99987 7.99987 0 0 1 -4.49809-10.38085l12.586-31.8335c.02735-.07031.05665-.14013.08594-.21a3.99956 3.99956 0 0 0 -3.6758-5.57565h-77.80176a8 8 0 0 1 -8-8 8 8 0 0 1 8-8h77.38071a20.44332 20.44332 0 0 1 15.57177 6.93909 19.97491 19.97491 0 0 1 3.28191 20.82219l-12.54978 31.74072a7.99988 7.99988 0 0 1 -10.3809 4.498z" fill="#4356e6"/><circle cx="159.946" cy="288" fill="#ed6445" r="8"/><circle cx="183.946" cy="288" fill="#f7c04a" r="8"/></svg>